<?xml version="1.0" standalone="no"?><!DOCTYPE svg PUBLIC "-//W3C//DTD SVG 20010904//EN" "http://www.w3.org/TR/2001/REC-SVG-20010904/DTD/svg10.dtd"><svg xmlns="http://www.w3.org/2000/svg" version="1.0" width="1230.000000pt" height="1158.000000pt" viewBox="0 0 1230.000000 1158.000000" preserveAspectRatio="xMidYMid meet" fill="#ffffff">
<metadata>
Created by potrace 1.16, written by Peter Selinger 2001-2019
</metadata>
<g transform="translate(0.000000,1158.000000) scale(0.100000,-0.100000)" fill="#ffffff" stroke="none">
<path d="M4816 11265 c-115 -16 -260 -62 -366 -115 -92 -46 -264 -174 -321 -238 -108 -122 -200 -281 -258 -446 -72 -204 -83 -296 -90 -771 l-6 -410 -1380 -5 c-1524 -6 -1407 -1 -1559 -70 -133 -59 -234 -140 -331 -265 -101 -130 -153 -249 -180 -420 -13 -76 -15 -328 -15 -1630 l0 -1540 2455 -3 2455 -2 0 127 c0 151 9 191 56 243 65 72 40 70 867 70 l738 1 53 -24 c32 -15 65 -40 82 -62 29 -38 29 -40 32 -197 l4 -158 2449 0 2449 0 1 1420 c1 781 2 1423 3 1428 2 4 8 27 15 52 10 32 12 83 8 175 -5 110 -10 145 -37 225 -39 119 -81 195 -160 288 -130 154 -285 260 -456 314 l-69 22 -1366 3 -1366 4 -6 382 c-6 419 -13 511 -59 697 -116 479 -506 829 -1003 902 -127 18 -2507 21 -2639 3z m2497 -1014 c54 -6 73 -12 94 -33 24 -25 27 -36 33 -135 4 -59 8 -264 9 -455 l2 -348 -1326 0 c-1203 0 -1326 1 -1332 16 -3 9 -2 203 3 432 9 394 10 418 29 444 26 35 89 70 140 79 56 9 2265 10 2348 0z"/>
<path d="M317 4793 c-12 -11 -8 -3559 3 -3671 19 -184 89 -354 205 -499 112 -140 229 -219 433 -291 l77 -27 5080 0 c4024 0 5096 3 5158 13 152 24 306 109 436 242 153 156 219 294 268 555 15 83 18 143 16 345 -1 135 -7 277 -13 315 -7 39 -16 97 -21 130 -9 58 -18 2494 -10 2765 l3 125 -2450 3 -2450 2 -7 -72 c-3 -40 -5 -190 -3 -333 3 -232 1 -264 -14 -287 -24 -36 -96 -68 -176 -78 -37 -5 -386 -7 -777 -6 l-710 3 -52 27 c-84 42 -85 45 -91 424 l-5 322 -2447 0 c-1346 0 -2450 -3 -2453 -7z"/>
</g>
</svg>