<?xml version="1.0" standalone="no"?><!DOCTYPE svg PUBLIC "-//W3C//DTD SVG 20010904//EN" "http://www.w3.org/TR/2001/REC-SVG-20010904/DTD/svg10.dtd"><svg xmlns="http://www.w3.org/2000/svg" version="1.0" width="1434.000000pt" height="1242.000000pt" viewBox="0 0 1434.000000 1242.000000" preserveAspectRatio="xMidYMid meet" fill="#ffffff">
<metadata>
Created by potrace 1.16, written by Peter Selinger 2001-2019
</metadata>
<g transform="translate(0.000000,1242.000000) scale(0.100000,-0.100000)" fill="#ffffff" stroke="none">
<path d="M11770 12124 c-160 -5 -590 -33 -675 -45 -38 -5 -160 -21 -270 -35 -109 -14 -202 -27 -205 -29 -3 -2 -63 -13 -135 -25 -424 -71 -1100 -243 -1455 -370 -436 -156 -726 -302 -968 -487 -94 -72 -232 -210 -287 -287 -99 -139 -176 -339 -194 -500 -12 -106 -16 -8204 -5 -8290 10 -68 41 -90 115 -82 58 6 98 20 449 159 587 232 1529 491 2230 613 80 13 195 33 255 44 194 34 701 103 945 130 188 20 765 64 1055 80 365 21 449 40 496 116 l24 39 0 4290 c0 4032 -1 4294 -17 4352 -26 93 -60 152 -120 209 -119 113 -135 115 -678 118 -245 2 -497 1 -560 0z"/>
<path d="M1582 12105 c-76 -21 -104 -38 -175 -104 -75 -71 -109 -129 -132 -231 -17 -71 -18 -298 -17 -4290 1 -2318 1 -4246 2 -4284 0 -65 2 -70 34 -101 64 -60 125 -72 528 -100 200 -13 408 -27 463 -30 587 -34 1251 -117 1880 -236 144 -27 204 -40 330 -69 22 -5 112 -26 200 -46 260 -58 875 -235 1235 -354 170 -56 419 -153 613 -239 262 -116 349 -127 375 -47 10 31 12 861 9 4170 -3 3773 -5 4139 -20 4221 -40 225 -129 397 -286 559 -456 469 -1536 883 -2801 1075 -611 93 -855 110 -1630 117 -470 3 -563 2 -608 -11z"/>
<path d="M518 10180 c-81 -14 -154 -73 -199 -160 l-24 -45 0 -4285 c0 -3592 2 -4296 14 -4355 39 -198 194 -351 394 -385 50 -9 158 -9 434 -1 600 18 932 31 1208 46 143 8 510 18 815 21 584 7 995 -3 1270 -31 679 -68 1105 -153 1544 -310 152 -54 229 -86 577 -243 301 -135 378 -155 609 -153 263 2 366 29 655 166 277 132 424 192 618 254 490 156 1037 254 1657 296 299 21 1272 30 1570 16 1091 -53 1968 -79 2051 -62 120 25 221 107 281 228 l43 87 -2 4367 c-2 3857 -4 4372 -17 4397 -27 51 -122 130 -180 148 -30 9 -60 15 -68 12 -12 -5 -14 -533 -12 -3794 1 -2480 -1 -3807 -8 -3842 -12 -68 -57 -119 -145 -168 -88 -50 -271 -89 -523 -113 -63 -6 -160 -16 -215 -21 -55 -6 -208 -17 -340 -25 -356 -21 -531 -34 -620 -45 -44 -6 -204 -22 -355 -35 -151 -14 -282 -27 -290 -30 -8 -2 -55 -9 -105 -15 -86 -10 -321 -48 -650 -105 -141 -24 -187 -33 -362 -70 -256 -54 -698 -165 -923 -231 -69 -20 -138 -40 -155 -44 -37 -10 -252 -79 -490 -158 -151 -50 -534 -198 -640 -247 -16 -7 -72 -32 -123 -54 -51 -23 -127 -57 -168 -76 -41 -19 -76 -35 -79 -35 -2 0 -28 -11 -57 -25 -105 -49 -214 -86 -285 -96 -123 -19 -236 11 -488 131 -336 159 -421 197 -635 283 -129 52 -264 104 -300 117 -576 199 -904 294 -1360 395 -175 38 -581 120 -650 130 -25 3 -103 17 -175 30 -439 80 -943 133 -1990 210 -759 56 -934 102 -1015 270 l-21 42 -1 3784 c-1 2081 -4 3796 -6 3811 -2 16 -7 27 -11 27 -3 -1 -27 -5 -53 -9z"/>
</g>
</svg>