<?xml version="1.0" standalone="no"?><!DOCTYPE svg PUBLIC "-//W3C//DTD SVG 20010904//EN" "http://www.w3.org/TR/2001/REC-SVG-20010904/DTD/svg10.dtd"><svg xmlns="http://www.w3.org/2000/svg" version="1.0" width="1188.000000pt" height="1542.000000pt" viewBox="0 0 1188.000000 1542.000000" preserveAspectRatio="xMidYMid meet" fill="#ffffff">
<metadata>
Created by potrace 1.16, written by Peter Selinger 2001-2019
</metadata>
<g transform="translate(0.000000,1542.000000) scale(0.100000,-0.100000)" fill="#ffffff" stroke="none">
<path d="M4266 15109 c-153 -10 -221 -24 -330 -69 -207 -86 -368 -249 -451 -455 -55 -139 -68 -247 -69 -590 l-1 -310 -995 -6 c-1049 -5 -1064 -6 -1225 -53 -287 -82 -543 -269 -708 -517 -113 -170 -173 -347 -198 -579 -10 -89 -13 -1262 -14 -5260 -1 -2830 1 -5311 5 -5515 5 -296 10 -386 24 -450 21 -95 49 -180 82 -253 13 -29 24 -55 24 -58 0 -4 17 -34 37 -68 145 -241 369 -432 630 -535 142 -57 223 -70 481 -80 128 -5 2090 -9 4517 -8 4478 2 4423 2 4590 43 154 38 321 125 482 251 167 130 314 338 383 542 36 107 49 177 59 321 15 199 15 10966 1 11111 -18 188 -74 351 -174 509 -80 128 -243 296 -366 380 -89 60 -226 125 -335 159 -187 58 -259 61 -1272 61 l-913 0 -4 23 c-3 12 -7 155 -10 317 -6 319 -16 413 -60 545 -96 285 -369 495 -697 536 -115 14 -3279 22 -3493 8z m134 -3889 c60 -11 184 -85 229 -135 16 -19 47 -64 68 -102 36 -64 38 -73 37 -153 0 -95 -18 -143 -83 -230 -20 -26 -367 -380 -771 -787 -685 -690 -740 -742 -808 -777 -66 -34 -79 -37 -155 -37 -91 -1 -159 19 -239 70 -50 32 -634 616 -692 693 -87 113 -98 268 -31 405 58 117 187 213 308 228 70 9 184 -16 250 -54 49 -28 265 -238 349 -339 44 -53 57 -51 116 22 85 104 1116 1122 1164 1149 49 28 135 55 179 56 15 1 50 -3 79 -9z m5010 -720 l235 -6 64 -34 c168 -90 237 -318 149 -493 -45 -91 -154 -172 -258 -195 -72 -15 -3455 -19 -3542 -3 -126 22 -212 85 -262 191 -28 60 -30 74 -31 175 0 100 2 115 27 165 33 67 79 115 149 161 53 34 55 34 199 40 190 8 2966 7 3270 -1z m-5020 -2761 c123 -20 235 -111 307 -249 25 -50 28 -65 28 -155 0 -94 -2 -105 -34 -169 -31 -64 -77 -113 -551 -585 -284 -284 -617 -619 -741 -746 -242 -248 -301 -294 -408 -316 -88 -18 -180 -7 -259 31 -60 29 -103 69 -413 379 -378 378 -393 397 -405 517 -18 172 84 337 261 421 73 34 80 36 155 30 139 -9 269 -95 450 -295 41 -45 79 -91 84 -102 5 -11 15 -20 21 -20 7 0 282 269 611 598 624 624 644 641 746 661 60 12 75 12 148 0z m5275 -752 c79 -37 148 -106 193 -192 33 -64 36 -77 36 -155 1 -73 -3 -93 -27 -141 -55 -113 -167 -210 -257 -223 -75 -10 -3498 -8 -3567 3 -79 12 -123 34 -174 85 -139 142 -142 402 -6 544 40 41 121 89 173 101 23 5 755 8 1804 8 l1765 -2 60 -28z m-5175 -2759 c81 -41 164 -123 210 -208 30 -58 35 -76 38 -157 4 -81 2 -97 -20 -145 -14 -29 -46 -80 -71 -113 -25 -33 -367 -380 -759 -771 -568 -566 -726 -718 -777 -748 -136 -79 -267 -74 -401 15 -60 40 -643 619 -729 724 -49 59 -81 139 -81 199 0 117 40 224 113 303 52 57 94 84 175 111 105 37 202 24 308 -39 58 -35 299 -265 368 -351 21 -27 46 -48 55 -48 9 0 27 17 41 38 13 20 276 289 585 598 651 652 635 639 805 629 58 -4 89 -12 140 -37z m5143 -684 c69 -18 83 -26 150 -91 62 -60 104 -148 112 -238 6 -61 3 -79 -20 -145 -45 -123 -77 -159 -202 -228 -63 -34 -99 -34 -1873 -33 -1493 2 -1763 4 -1806 16 -91 26 -172 107 -215 215 -9 23 -14 74 -14 145 0 97 3 116 25 160 48 98 163 187 262 204 29 5 833 9 1787 10 1548 1 1740 -1 1794 -15z"/>
</g>
</svg>